<?xml version="1.0" encoding="UTF-8"?><svg xmlns="http://www.w3.org/2000/svg" height="981" version="1.1" viewBox="0 0 741 981" width="741"><rect fill="#cdd5ff" height="23" stroke="#000000" stroke-width="1.0" width="740" x="0" y="0"/><rect fill="none" height="957" stroke="#000000" stroke-width="1.0" width="740" x="0" y="23"/><text fill="black" font-decoration="none" font-family="Arial,Helvetica" font-size="12" font-weight="normal" text-anchor="middle"><tspan x="370" y="16">SCXML[TinyRobot]</tspan></text><rect fill="#cdd5ff" height="23" stroke="#000000" stroke-width="1.0" width="700" x="20" y="40"/><rect fill="none" height="907" stroke="#000000" stroke-width="1.0" width="700" x="20" y="63"/><text fill="black" font-decoration="none" font-family="Arial,Helvetica" font-size="12" font-weight="normal" text-anchor="middle"><tspan x="370" y="56">Root</tspan></text><ellipse cx="127" cy="114" fill="#cdd5ff" rx="37" ry="37" stroke="#000000" stroke-width="1.0"/><text fill="black" font-decoration="none" font-family="Arial,Helvetica" font-size="11" font-weight="normal" text-anchor="middle"><tspan x="127" y="118">LoadData</tspan></text><rect fill="#cdd5ff" height="75" rx="11.25" ry="11.25" stroke="#000000" stroke-width="1.0" width="75" x="480" y="80"/><text fill="black" font-decoration="none" font-family="Arial,Helvetica" font-size="11" font-weight="normal" text-anchor="middle"><tspan x="517" y="121">PromoScene</tspan></text><rect fill="#cdd5ff" height="75" rx="11.25" ry="11.25" stroke="#000000" stroke-width="1.0" width="75" x="350" y="190"/><text fill="black" font-decoration="none" font-family="Arial,Helvetica" font-size="11" font-weight="normal" text-anchor="middle"><tspan x="387" y="231">Register</tspan></text><rect fill="#cdd5ff" height="23" stroke="#000000" stroke-width="1.0" width="660" x="40" y="310"/><rect fill="none" height="617" stroke="#000000" stroke-width="1.0" width="660" x="40" y="333"/><text fill="black" font-decoration="none" font-family="Arial,Helvetica" font-size="12" font-weight="normal" text-anchor="middle"><tspan x="370" y="326">Connected</tspan></text><rect fill="#cdd5ff" height="75" rx="11.25" ry="11.25" stroke="#000000" stroke-width="1.0" width="75" x="240" y="377"/><text fill="black" font-decoration="none" font-family="Arial,Helvetica" font-size="11" font-weight="normal" text-anchor="middle"><tspan x="278" y="418">CheckProfile</tspan></text><rect fill="#cdd5ff" height="75" rx="11.25" ry="11.25" stroke="#000000" stroke-width="1.0" width="75" x="380" y="377"/><text fill="black" font-decoration="none" font-family="Arial,Helvetica" font-size="11" font-weight="normal" text-anchor="middle"><tspan x="418" y="418">SignUpScene</tspan></text><rect fill="#cdd5ff" height="75" rx="15.0" ry="11.25" stroke="#000000" stroke-width="1.0" width="100" x="571" y="357"/><text fill="black" font-decoration="none" font-family="Arial,Helvetica" font-size="11" font-weight="normal" text-anchor="middle"><tspan x="620" y="398">RegisterProfile</tspan></text><rect fill="#c2d200" height="23" stroke="#c2d200" stroke-width="1.0" width="471" x="165" y="478"/><rect fill="none" height="428" stroke="#c2d200" stroke-width="1.0" width="471" x="165" y="501"/><text fill="black" font-decoration="none" font-family="Arial,Helvetica" font-size="12" font-weight="normal" text-anchor="middle"><tspan x="400" y="494">Main</tspan></text><rect fill="#cdd5ff" height="80" rx="12.0" ry="12.0" stroke="#000000" stroke-width="1.0" width="80" x="185" y="518"/><text fill="black" font-decoration="none" font-family="Arial,Helvetica" font-size="11" font-weight="normal" text-anchor="middle"><tspan x="225" y="561">LoggedScene</tspan></text><rect fill="#cdd5ff" height="23" stroke="#000000" stroke-width="1.0" width="147" x="469" y="521"/><rect fill="none" height="365" stroke="#000000" stroke-width="1.0" width="147" x="469" y="544"/><text fill="black" font-decoration="none" font-family="Arial,Helvetica" font-size="12" font-weight="normal" text-anchor="middle"><tspan x="542" y="537">Messaging</tspan></text><ellipse cx="539" cy="601" fill="#cdd5ff" rx="45" ry="37" stroke="#000000" stroke-width="1.0"/><text fill="black" font-decoration="none" font-family="Arial,Helvetica" font-size="11" font-weight="normal" text-anchor="middle"><tspan x="539" y="605">RequestArchive</tspan></text><rect fill="#cdd5ff" height="75" rx="13.5" ry="11.25" stroke="#000000" stroke-width="1.0" width="90" x="494" y="689"/><text fill="black" font-decoration="none" font-family="Arial,Helvetica" font-size="11" font-weight="normal" text-anchor="middle"><tspan x="539" y="730">MessagingIdle</tspan></text><rect fill="#cdd5ff" height="75" rx="15.0" ry="11.25" stroke="#000000" stroke-width="1.0" width="100" x="489" y="814"/><text fill="black" font-decoration="none" font-family="Arial,Helvetica" font-size="11" font-weight="normal" text-anchor="middle"><tspan x="539" y="855">MessageReceived</tspan></text><g><path d="M 553.1971182034683 813.5316693317601 L 552.488552635648 806.8609920920715 L 554.7731820346828 809.3166933176009 L 558.1085206545271 808.9624105336907 z" fill="#888888" stroke="#888888" stroke-width="1.0"/><path d="M 553.1971182034683 764.4683306682399 L 562.37 789.0 L 553.022 814.0" fill="none" stroke="#888888" stroke-width="1.0"/></g><text fill="black" font-decoration="none" font-family="Arial,Helvetica" font-size="11" font-weight="normal" text-anchor="middle"><tspan x="562" y="792">messageReceived</tspan></text><g><path d="M 541.0489208939521 764.4992747394659 L 544.3676200581721 770.3290462493457 L 541.2912089395201 768.9927473946598 L 538.3763231845802 770.6520969767697 z" fill="#888888" stroke="#888888" stroke-width="1.0"/><path d="M 541.0489208939521 813.5007252605341 L 542.37 789.0 L 541.022 764.0" fill="none" stroke="#888888" stroke-width="1.0"/></g><g><path d="M 539.1103657147961 688.5000004023179 L 536.1027567062564 682.503810941356 L 539.1046571479609 684.0000040231789 L 542.1027518784418 682.496199518909 z" fill="#888888" stroke="#888888" stroke-width="1.0"/><path d="M 539.0482056869065 639.4999784173112 L 539.111 689.0" fill="none" stroke="#888888" stroke-width="1.0"/></g><rect fill="#cdd5ff" height="23" stroke="#000000" stroke-width="1.0" width="142" x="310" y="520"/><rect fill="none" height="367" stroke="#000000" stroke-width="1.0" width="142" x="310" y="543"/><text fill="black" font-decoration="none" font-family="Arial,Helvetica" font-size="12" font-weight="normal" text-anchor="middle"><tspan x="381" y="536">Friends</tspan></text><ellipse cx="370" cy="589" fill="#cdd5ff" rx="45" ry="37" stroke="#000000" stroke-width="1.0"/><text fill="black" font-decoration="none" font-family="Arial,Helvetica" font-size="11" font-weight="normal" text-anchor="middle"><tspan x="369" y="593">RequestRoster</tspan></text><rect fill="#cdd5ff" height="75" rx="11.25" ry="11.25" stroke="#000000" stroke-width="1.0" width="75" x="335" y="672"/><text fill="black" font-decoration="none" font-family="Arial,Helvetica" font-size="11" font-weight="normal" text-anchor="middle"><tspan x="373" y="713">FriendsIdle</tspan></text><rect fill="#cdd5ff" height="60" rx="16.5" ry="9.0" stroke="#000000" stroke-width="1.0" width="110" x="325" y="812"/><text fill="black" font-decoration="none" font-family="Arial,Helvetica" font-size="11" font-weight="normal" text-anchor="middle"><tspan x="380" y="845">PresenceReceived</tspan></text><g><path d="M 391.71795107811596 811.5333271968984 L 391.07178873536003 804.8563163217535 L 393.3333569350059 807.3332719689846 L 396.67186237257835 807.0101907976067 z" fill="#888888" stroke="#888888" stroke-width="1.0"/><path d="M 385.47219512549884 747.473153003733 L 400.0 790.0 L 391.53846153846155 812.0" fill="none" stroke="#888888" stroke-width="1.0"/></g><text fill="black" font-decoration="none" font-family="Arial,Helvetica" font-size="11" font-weight="normal" text-anchor="middle"><tspan x="390" y="783">presenceReceived</tspan></text><g><path d="M 371.5903048534246 671.500094004704 L 368.4745271227433 665.5593929406047 L 371.50304853424564 667.00094004704 L 374.4733990662953 665.4430511816994 z" fill="#888888" stroke="#888888" stroke-width="1.0"/><path d="M 370.7368729114161 627.4950094948935 L 371.6 672.0" fill="none" stroke="#888888" stroke-width="1.0"/></g><g><path d="M 374.6846825311016 747.4992109607934 L 378.016893386063 753.3212699452145 L 374.9373913487521 751.9921096079345 L 372.0263618565416 753.6582150354152 z" fill="#888888" stroke="#888888" stroke-width="1.0"/><path d="M 378.28453296045745 811.5007890392066 L 374.6566037735849 747.0" fill="none" stroke="#888888" stroke-width="1.0"/></g><ellipse cx="127" cy="387" fill="#cdd5ff" rx="37" ry="37" stroke="#000000" stroke-width="1.0"/><text fill="black" font-decoration="none" font-family="Arial,Helvetica" font-size="11" font-weight="normal" text-anchor="middle"><tspan x="128" y="391">LoadProfile</tspan></text><g><path d="M 239.50009608917165 415.2450961551143 L 233.56006138403464 418.36214406969117 L 235.00096089171637 415.3333144923193 L 233.44243693442795 412.36329713975084 z" fill="#888888" stroke="#888888" stroke-width="1.0"/><path d="M 150.12092204856992 417.15854224145835 L 150.0 417.0 L 150.0 417.0 L 240.0 415.2352941176471" fill="none" stroke="#888888" stroke-width="1.0"/></g><text fill="black" font-decoration="none" font-family="Arial,Helvetica" font-size="11" font-weight="normal" text-anchor="middle"><tspan x="200" y="430">success</tspan></text><g><path d="M 570.5013728662626 390.75010194551453 L 564.2956866572741 393.2975435396578 L 566.0137286626266 390.4168610393039 L 564.740007865555 387.3140179348097 z" fill="#888888" stroke="#888888" stroke-width="1.0"/><path d="M 455.4829214186173 404.3094601072002 L 520.0 387.0 L 571.0 390.78712871287127" fill="none" stroke="#888888" stroke-width="1.0"/></g><text fill="black" font-decoration="none" font-family="Arial,Helvetica" font-size="11" font-weight="normal" text-anchor="middle"><tspan x="519" y="400">success</tspan></text><g><path d="M 162.63776774203916 373.03150740033686 L 167.04358691712454 367.9729742733869 L 166.79881918517538 371.31813327669255 L 169.32808574865035 373.5210428642352 z" fill="#888888" stroke="#888888" stroke-width="1.0"/><path d="M 570.5098757183528 384.31339597826417 L 450.0 360.0 L 170.0 370.0 L 162.1754286928018 373.221882302964" fill="none" stroke="#888888" stroke-width="1.0"/></g><text fill="black" font-decoration="none" font-family="Arial,Helvetica" font-size="11" font-weight="normal" text-anchor="middle"><tspan x="369" y="361">success</tspan></text><g><path d="M 455.4883721715859 422.8389109644945 L 461.992060115145 421.19512170403453 L 459.8837217158594 423.80374379128625 L 460.7056163460894 427.05558776306583 z" fill="#888888" stroke="#888888" stroke-width="1.0"/><path d="M 570.5391393780579 415.7335304597281 L 520.0 437.0 L 455.0 422.7317073170732" fill="none" stroke="#888888" stroke-width="1.0"/></g><text fill="black" font-decoration="none" font-family="Arial,Helvetica" font-size="11" font-weight="normal" text-anchor="middle"><tspan x="519" y="430">failure</tspan></text><g><path d="M 379.5 414.5 L 373.5 417.5 L 375.0 414.5 L 373.5 411.5 z" fill="#888888" stroke="#888888" stroke-width="1.0"/><path d="M 315.5 414.5 L 380.0 414.5" fill="none" stroke="#888888" stroke-width="1.0"/></g><g><path d="M 304.3301452976644 477.53993488638196 L 299.22007950280664 473.1939910795403 L 302.5678889628022 473.3993488638197 L 304.74086086622304 470.8443159663908 z" fill="#888888" stroke="#888888" stroke-width="1.0"/><path d="M 293.6560138718859 452.46006511361804 L 304.5259515570935 478.0" fill="none" stroke="#888888" stroke-width="1.0"/></g><rect fill="#cdd5ff" height="75" rx="11.25" ry="11.25" stroke="#000000" stroke-width="1.0" width="75" x="80" y="190"/><text fill="black" font-decoration="none" font-family="Arial,Helvetica" font-size="11" font-weight="normal" text-anchor="middle"><tspan x="117" y="231">Connect</tspan></text><g><path d="M 120.73737865453744 189.502020160954 L 118.28830896143639 183.2568574218147 L 121.1414856604186 185.0202016095401 L 124.26406702998825 183.79566676298958 z" fill="#888888" stroke="#888888" stroke-width="1.0"/><path d="M 124.08754083922585 152.34646776749386 L 120.6924778761062 190.0" fill="none" stroke="#888888" stroke-width="1.0"/></g><text fill="black" font-decoration="none" font-family="Arial,Helvetica" font-size="11" font-weight="normal" text-anchor="middle"><tspan x="122" y="174">success</tspan></text><g><path d="M 479.5004879275091 115.820021571532 L 473.3738409078626 118.55208970696653 L 475.00487927509084 115.62126834689877 L 473.6388452073736 112.55794483707551 z" fill="#888888" stroke="#888888" stroke-width="1.0"/><path d="M 165.4541278083738 112.63340355040785 L 280.0 107.0 L 480.0 115.8421052631579" fill="none" stroke="#888888" stroke-width="1.0"/></g><text fill="black" font-decoration="none" font-family="Arial,Helvetica" font-size="11" font-weight="normal" text-anchor="middle"><tspan x="322" y="112">success</tspan></text><g><path d="M 479.5034741986956 122.00270679973879 L 473.8982037182737 125.68793987802721 L 475.0347419869559 122.53226550258528 L 473.19212544781175 119.72963026237434 z" fill="#888888" stroke="#888888" stroke-width="1.0"/><path d="M 164.68357183423217 122.33466563731312 L 277.0 146.0 L 480.0 121.94386694386695" fill="none" stroke="#888888" stroke-width="1.0"/></g><text fill="black" font-decoration="none" font-family="Arial,Helvetica" font-size="11" font-weight="normal" text-anchor="middle"><tspan x="321" y="144">failure</tspan></text><g><path d="M 510.79546027422197 155.49239177940896 L 512.7070989472215 161.92244913404372 L 510.01342627163126 159.92391779408968 L 506.7983975943139 160.87973713058946 z" fill="#888888" stroke="#888888" stroke-width="1.0"/><path d="M 510.00000000000006 310.0 L 510.0 310.0 L 510.0 160.0 L 510.88235294117646 155.0" fill="none" stroke="#888888" stroke-width="1.0"/></g><text fill="black" font-decoration="none" font-family="Arial,Helvetica" font-size="11" font-weight="normal" text-anchor="middle"><tspan x="510" y="235">disconnect</tspan></text><g><path d="M 168.68795383792622 309.57574691656504 L 162.96732238622116 306.07226639089305 L 166.30661912460477 305.7574691656503 L 168.05835938744076 302.8971534397978 z" fill="#888888" stroke="#888888" stroke-width="1.0"/><path d="M 141.15211392040223 265.42425308343496 L 168.95254658385082 310.0" fill="none" stroke="#888888" stroke-width="1.0"/></g><text fill="black" font-decoration="none" font-family="Arial,Helvetica" font-size="11" font-weight="normal" text-anchor="middle"><tspan x="140" y="293">success</tspan></text><g><path d="M 479.5177205757967 127.89055460110389 L 474.5219709540497 132.3674380837081 L 475.1772057579672 129.0779598041423 L 472.9387640166651 126.5800849932688 z" fill="#888888" stroke="#888888" stroke-width="1.0"/><path d="M 155.4818911222756 216.9899424565758 L 300.0 177.0 L 480.0 127.75862068965517" fill="none" stroke="#888888" stroke-width="1.0"/></g><text fill="black" font-decoration="none" font-family="Arial,Helvetica" font-size="11" font-weight="normal" text-anchor="middle"><tspan x="317" y="175">failure</tspan></text><g><path d="M 155.5 227.5 L 161.5 224.5 L 160.0 227.5 L 161.5 230.5 z" fill="#888888" stroke="#888888" stroke-width="1.0"/><path d="M 349.5 227.5 L 155.0 227.5" fill="none" stroke="#888888" stroke-width="1.0"/></g><text fill="black" font-decoration="none" font-family="Arial,Helvetica" font-size="11" font-weight="normal" text-anchor="middle"><tspan x="252" y="231">success</tspan></text><g><path d="M 425.38188245012685 195.3534601147116 L 428.02798828748826 189.18919828562923 L 428.8188245012684 192.4487347684706 L 431.90095541580956 193.7717876871513 z" fill="#888888" stroke="#888888" stroke-width="1.0"/><path d="M 479.61811754987315 149.51580430477654 L 425.0 195.67620737540503" fill="none" stroke="#888888" stroke-width="1.0"/></g><text fill="black" font-decoration="none" font-family="Arial,Helvetica" font-size="11" font-weight="normal" text-anchor="middle"><tspan x="452" y="175">success</tspan></text></svg>