<?xml version="1.0" encoding="UTF-8"?><svg xmlns="http://www.w3.org/2000/svg" height="301" version="1.1" viewBox="0 0 341 301" width="341"><rect fill="#cdd5ff" height="23" stroke="#000000" stroke-width="1.0" width="340" x="0" y="0"/><rect fill="none" height="277" stroke="#000000" stroke-width="1.0" width="340" x="0" y="23"/><text fill="black" font-decoration="none" font-family="Arial,Helvetica" font-size="12" font-weight="normal" text-anchor="middle"><tspan x="170" y="16">SCXML</tspan></text><ellipse cx="77" cy="97" fill="#cdd5ff" rx="37" ry="37" stroke="#000000" stroke-width="1.0"/><text fill="black" font-decoration="none" font-family="Arial,Helvetica" font-size="11" font-weight="normal" text-anchor="middle"><tspan x="77" y="101">ready</tspan></text><rect fill="#cdd5ff" height="75" rx="11.25" ry="11.25" stroke="#000000" stroke-width="1.0" width="75" x="40" y="210"/><text fill="black" font-decoration="none" font-family="Arial,Helvetica" font-size="11" font-weight="normal" text-anchor="middle"><tspan x="77" y="251">running</tspan></text><rect fill="#cdd5ff" height="75" rx="11.25" ry="11.25" stroke="#000000" stroke-width="1.0" width="75" x="240" y="210"/><text fill="black" font-decoration="none" font-family="Arial,Helvetica" font-size="11" font-weight="normal" text-anchor="middle"><tspan x="277" y="251">paused</tspan></text><rect fill="#cdd5ff" height="75" rx="11.25" ry="11.25" stroke="#000000" stroke-width="1.0" width="75" x="240" y="60"/><text fill="black" font-decoration="none" font-family="Arial,Helvetica" font-size="11" font-weight="normal" text-anchor="middle"><tspan x="277" y="101">stopped</tspan></text><g><path d="M 239.5000629762582 248.10317360355145 L 233.54843174123675 251.19802184576258 L 235.000629762582 248.1745931783717 L 233.45320564147642 245.198777560861 z" fill="#888888" stroke="#888888" stroke-width="1.0"/><path d="M 115.4991371865875 249.73524336391694 L 120.0 250.0 L 240.0 248.0952380952381" fill="none" stroke="#888888" stroke-width="1.0"/></g><text fill="black" font-decoration="none" font-family="Arial,Helvetica" font-size="11" font-weight="normal" text-anchor="middle"><tspan x="177" y="252">watch.split</tspan></text><g><path d="M 239.6024388735611 126.40491950321609 L 236.65105288406565 132.4289813173918 L 236.02438873561113 129.13394079487287 L 233.01235782852328 127.65824780012514 z" fill="#888888" stroke="#888888" stroke-width="1.0"/><path d="M 115.40686673560337 220.42366661742616 L 130.0 210.0 L 240.0 126.10169491525423" fill="none" stroke="#888888" stroke-width="1.0"/></g><text fill="black" font-decoration="none" font-family="Arial,Helvetica" font-size="11" font-weight="normal" text-anchor="middle"><tspan x="184" y="177">watch.stop</tspan></text><g><path d="M 115.48292141861734 237.30946010720024 L 120.50059274376329 232.85716019897214 L 119.82921418617335 236.14338155980715 L 122.0553641402874 238.65221722238013 z" fill="#888888" stroke="#888888" stroke-width="1.0"/><path d="M 239.5187751620068 236.78734684056604 L 180.0 220.0 L 115.0 237.4390243902439" fill="none" stroke="#888888" stroke-width="1.0"/></g><text fill="black" font-decoration="none" font-family="Arial,Helvetica" font-size="11" font-weight="normal" text-anchor="middle"><tspan x="177" y="224">watch.unsplit</tspan></text><g><path d="M 277.60985735328 135.49999975947406 L 280.6039706976138 141.50293947941813 L 277.6054434438971 139.99999759474065 L 274.60397358392504 141.49705426690755 z" fill="#888888" stroke="#888888" stroke-width="1.0"/><path d="M 277.5372730302612 209.50000024052594 L 277.6103477876559 135.0" fill="none" stroke="#888888" stroke-width="1.0"/></g><text fill="black" font-decoration="none" font-family="Arial,Helvetica" font-size="11" font-weight="normal" text-anchor="middle"><tspan x="278" y="176">watch.stop</tspan></text><g><path d="M 114.9217752350816 90.89615731145618 L 120.30912058626208 86.89909463154808 L 119.35330124976231 90.11412330886547 L 121.35183258971637 92.80779598445571 z" fill="#888888" stroke="#888888" stroke-width="1.0"/><path d="M 240.0 90.0 L 240.0 90.0 L 120.0 90.0 L 114.42938345567264 90.9830499784107" fill="none" stroke="#888888" stroke-width="1.0"/></g><text fill="black" font-decoration="none" font-family="Arial,Helvetica" font-size="11" font-weight="normal" text-anchor="middle"><tspan x="181" y="83">watch.reset</tspan></text><g><path d="M 77.60985735328002 209.50000024052594 L 74.60397358392508 203.50294573309245 L 77.6054434438971 205.00000240525935 L 80.60397069761386 203.49706052058187 z" fill="#888888" stroke="#888888" stroke-width="1.0"/><path d="M 77.53727301258137 135.49998173483158 L 77.6103477876559 210.0" fill="none" stroke="#888888" stroke-width="1.0"/></g><text fill="black" font-decoration="none" font-family="Arial,Helvetica" font-size="11" font-weight="normal" text-anchor="middle"><tspan x="78" y="175">watch.start</tspan></text></svg>